<svg xmlns="http://www.w3.org/2000/svg" xmlns:xlink="http://www.w3.org/1999/xlink" id="Layer_1" x="0" y="0" version="1.1" viewBox="0 0 512 512" xml:space="preserve" style="enable-background:new 0 0 512 512"><style type="text/css">.st0{fill:url(#SVGID_1_)}.st1{fill:#a1a9d5}.st2{fill:url(#SVGID_2_)}.st3{fill:url(#SVGID_3_)}</style><g><g id="Layer_1_1_"><linearGradient id="SVGID_1_" x1="259.572" x2="76.152" y1="503.294" y2="304.454" gradientTransform="matrix(1 0 0 -1 -6 512.36)" gradientUnits="userSpaceOnUse"><stop offset=".58" style="stop-color:#a1a9d5"/><stop offset=".73" style="stop-color:#8891c6"/><stop offset=".91" style="stop-color:#6471b5"/></linearGradient><path d="M87.09,207.77c4.99,10.67,17.35,31.78,17.35,31.78L247.34,3.32l-139.46,97.39 c-8.31,5.54-15.13,13.05-19.85,21.85C75.17,149.43,74.83,180.61,87.09,207.77z" class="st0"/><path d="M30.47,285.55c3.19,45.71,25.94,87.83,62.43,115.55l154.26,107.56c0,0-96.51-139.09-177.92-277.49 c-8.24-14.62-13.78-30.61-16.36-47.19c-1.14-7.51-1.14-15.15,0-22.66c-2.12,3.93-6.24,11.99-6.24,11.99 c-8.25,16.83-13.88,34.84-16.67,53.37C28.37,246.28,28.53,265.98,30.47,285.55z" class="st1"/><linearGradient id="SVGID_2_" x1="263.521" x2="446.968" y1="9.454" y2="208.256" gradientTransform="matrix(1 0 0 -1 -6 512.36)" gradientUnits="userSpaceOnUse"><stop offset=".58" style="stop-color:#a1a9d5"/><stop offset=".73" style="stop-color:#8891c6"/><stop offset=".91" style="stop-color:#6471b5"/></linearGradient><path d="M424.01,304.22c-4.99-10.67-17.35-31.78-17.35-31.78L263.76,508.66l139.46-97.32 c8.31-5.54,15.13-13.05,19.85-21.85C435.95,362.6,436.29,331.39,424.01,304.22z" class="st2"/><path d="M480.63,226.43c-3.19-45.71-25.94-87.83-62.43-115.55L263.95,3.32c0,0,96.45,139.09,177.92,277.49 c8.22,14.63,13.74,30.61,16.29,47.19c1.14,7.51,1.14,15.15,0,22.66c2.12-3.93,6.24-11.99,6.24-11.99 c8.25-16.83,13.88-34.84,16.67-53.37C482.7,265.71,482.55,246,480.63,226.43z" class="st1"/><linearGradient id="SVGID_3_" x1="261.535" x2="261.535" y1="511.536" y2="2.135" gradientTransform="matrix(1 0 0 -1 -6 512.36)" gradientUnits="userSpaceOnUse"><stop offset="0" style="stop-color:#565aa8"/><stop offset=".18" style="stop-color:#5662ac"/><stop offset=".57" style="stop-color:#6690cb"/><stop offset="1" style="stop-color:#75d0eb"/></linearGradient><path d="M88.03,122.56c4.72-8.8,11.54-16.31,19.85-21.85L247.34,3.32L104.45,239.61c0,0-12.49-21.1-17.35-31.78 C74.81,180.66,75.15,149.45,88.03,122.56z M30.47,285.55c3.19,45.71,25.94,87.83,62.43,115.55l154.26,107.56 c0,0-96.51-139.09-177.92-277.49c-8.24-14.62-13.78-30.61-16.36-47.19c-1.14-7.51-1.14-15.15,0-22.66 c-2.12,3.93-6.24,11.99-6.24,11.99c-8.25,16.83-13.88,34.84-16.67,53.37C28.37,246.28,28.53,265.98,30.47,285.55z M423.76,304.28 c-4.99-10.67-17.35-31.78-17.35-31.78L263.76,508.66l139.46-97.32c8.31-5.54,15.13-13.05,19.85-21.85 c12.88-26.9,13.22-58.1,0.94-85.27L423.76,304.28z M480.38,226.5c-3.19-45.71-25.94-87.83-62.43-115.55L263.95,3.32 c0,0,96.45,139.09,177.92,277.49c8.22,14.63,13.74,30.61,16.29,47.19c1.14,7.51,1.14,15.15,0,22.66 c2.12-3.93,6.24-11.99,6.24-11.99c8.25-16.83,13.88-34.84,16.67-53.37c1.63-19.6,1.48-39.3-0.44-58.87L480.38,226.5z" class="st3"/></g></g></svg>