<svg xmlns="http://www.w3.org/2000/svg" xmlns:xlink="http://www.w3.org/1999/xlink" style="enable-background:new 0 0 597 601" id="Layer_1" x="0" y="0" version="1.1" viewBox="0 0 597 601" xml:space="preserve"><style type="text/css">.st0{fill:#b7b2b9}.st0,.st1{fill-rule:evenodd;clip-rule:evenodd}.st2{fill:none;stroke:#979797}.st3{fill:#e2761b;stroke:#e2761b;stroke-linecap:round;stroke-linejoin:round}.st4{fill:#e4761b;stroke:#e4761b}.st10,.st11,.st12,.st4{stroke-linecap:round;stroke-linejoin:round}.st5{fill:#d7c1b3;stroke:#d7c1b3}.st5,.st6,.st7,.st8,.st9{stroke-linecap:round;stroke-linejoin:round}.st6{fill:#233447;stroke:#233447}.st7{fill:#cd6116;stroke:#cd6116}.st8{fill:#e4751f;stroke:#e4751f}.st9{fill:#f6851b;stroke:#f6851b}.st10{fill:#c0ad9e;stroke:#c0ad9e}.st11{fill:#161616;stroke:#161616}.st12{fill:#763d16;stroke:#763d16}</style><desc>Created with Sketch.</desc><g id="Artboard"><g id="Group" transform="translate(388.000000, 181.000000)"><g id="Combined-Shape"><g><path id="path-1" d="M124.11,214.99L124.11,214.99L98.86-139.5l44.27-3.08c2.77,11.61-0.46,24.24-9.7,37.89 c-9.22,13.63-9.91,120.35,22.02,316.5l0.01,0c1.12,6.09,1.33,9.14,2.28,13.74c10.87,52.88-37.82,97.19-93.65,101.07 C2.97,330.86-50.01,285-54.24,224.17c-1.39-19.93,2.63-38.99,10.82-55.77c3.93,11.65,7.5,21.46,10.71,29.43 c4.11,10.2,7.76,17.74,10.97,22.62c-4.59-0.98-8.54-1.28-8.13,2.13c0.69,5.68,7.98,17.58,14.76,27.4 c3.98,5.76,15.63,21.44,33.6,28.27c15.5,5.9,33.23,4.95,43.67,4.23C97.75,280,124.87,250.11,124.11,214.99z M120.93-110.05 c6.72-0.47,11.8-6.27,11.33-12.96s-6.29-11.74-13.02-11.27c-6.72,0.47-11.8,6.27-11.33,12.96S114.21-109.58,120.93-110.05z" class="st0"/></g><g><path id="path-1_1_" d="M124.11,214.99L124.11,214.99L98.86-139.5l44.27-3.08c2.77,11.61-0.46,24.24-9.7,37.89 c-9.22,13.63-9.91,120.35,22.02,316.5l0.01,0c1.12,6.09,1.33,9.14,2.28,13.74c10.87,52.88-37.82,97.19-93.65,101.07 C2.97,330.86-50.01,285-54.24,224.17c-1.39-19.93,2.63-38.99,10.82-55.77c3.93,11.65,7.5,21.46,10.71,29.43 c4.11,10.2,7.76,17.74,10.97,22.62c-4.59-0.98-8.54-1.28-8.13,2.13c0.69,5.68,7.98,17.58,14.76,27.4 c3.98,5.76,15.63,21.44,33.6,28.27c15.5,5.9,33.23,4.95,43.67,4.23C97.75,280,124.87,250.11,124.11,214.99z M120.93-110.05 c6.72-0.47,11.8-6.27,11.33-12.96s-6.29-11.74-13.02-11.27c-6.72,0.47-11.8,6.27-11.33,12.96S114.21-109.58,120.93-110.05z" class="st1"/></g><g><path id="path-1_2_" d="M124.11,214.99L124.11,214.99L98.86-139.5l44.27-3.08c2.77,11.61-0.46,24.24-9.7,37.89 c-9.22,13.63-9.91,120.35,22.02,316.5l0.01,0c1.12,6.09,1.33,9.14,2.28,13.74c10.87,52.88-37.82,97.19-93.65,101.07 C2.97,330.86-50.01,285-54.24,224.17c-1.39-19.93,2.63-38.99,10.82-55.77c3.93,11.65,7.5,21.46,10.71,29.43 c4.11,10.2,7.76,17.74,10.97,22.62c-4.59-0.98-8.54-1.28-8.13,2.13c0.69,5.68,7.98,17.58,14.76,27.4 c3.98,5.76,15.63,21.44,33.6,28.27c15.5,5.9,33.23,4.95,43.67,4.23C97.75,280,124.87,250.11,124.11,214.99z M120.93-110.05 c6.72-0.47,11.8-6.27,11.33-12.96s-6.29-11.74-13.02-11.27c-6.72,0.47-11.8,6.27-11.33,12.96S114.21-109.58,120.93-110.05z" class="st2"/></g></g></g><g id="logo" transform="translate(93.000000, 181.000000)"><polygon id="Path" points="129.52 -134.47 -63.43 8.84 -27.75 -75.71" class="st3"/><g id="Group_1_" transform="translate(2.000000, 0.000000)"><polygon id="Path_2_" points="58.1 197.71 6.71 276.45 116.66 306.7 148.27 199.46" class="st4"/><polygon id="Path_5_" points="12.72 64.69 -62.91 -2.8 -65.43 115.88 43.56 111.03" class="st4"/><polygon id="Path_7_" points="-59.03 244.45 6.71 276.45 -2.4 200.24" class="st4"/></g><g id="Group_2_" transform="translate(75.000000, 195.000000)"><polygon id="Path_8_" points="-66.29 81.45 -132.03 49.45 -126.79 92.31 -127.37 110.34" class="st5"/></g><polygon id="Path_11_" points="-53.54 171.92 -37.44 138.18 1.34 155.83" class="st6"/><polygon id="Eyelid-r" points="-16.5 160.68 -11.78 150.79 -.4 155.96"/><g id="Group_3_" transform="translate(48.000000, 123.000000)"><polygon id="Path_13_" points="-48.6 74.71 -39.29 153.45 12.1 76.46" class="st7"/><polygon id="Path_14_" points="-2.44 -11.97 -111.43 -7.12 -101.34 48.92 -85.25 15.18 -46.46 32.83" class="st7"/></g><g id="Group_4_" transform="translate(56.000000, 127.000000)"><polygon id="Path_17_" points="-54.46 28.83 -56.4 73.24 -10.44 -15.97" class="st8"/><polygon id="Path_19_" points="-119.43 -11.12 -124.66 23.79 -122.34 111.05 -109.34 44.92" class="st8"/></g><polygon id="Path_20_" points="-53.34 171.92 -66.34 238.05 -57.03 244.45 -.4 200.24 1.54 155.83" class="st9"/><polygon id="Path_22_" points="-52.37 305.34 -51.79 287.31 -56.64 283.04 -93 283.04 -93 323.96 -56.06 323.96 -12.62 293.9 8.71 276.45" class="st10"/><polygon id="Path_23_" points="-57.03 244.45 -66.34 238.05 -93 238.05 -93 283.04 -56.64 283.04 -51.79 287.31" class="st11"/><g id="Group_5_"><polygon id="Path_24_" points="137.67 18.15 154.15 -60.97 129.52 -134.47 -57.03 3.99 14.72 64.69 116.14 94.36 138.64 68.18 128.94 61.2 144.45 47.04 132.43 37.73 147.94 25.9" class="st12"/></g><polygon id="Path_26_" points="116.14 94.36 14.72 64.69 45.56 111.03 -.4 200.24 60.1 199.46 150.27 199.46" class="st9"/><polygon id="Path_28_" points="-63.43 115.88 -57.03 3.99 -27.55 -75.71 -93 -75.71 -93 238.05 -66.34 238.05 -65.95 151.17" class="st9"/></g></g></svg>