<svg xmlns="http://www.w3.org/2000/svg" xmlns:xlink="http://www.w3.org/1999/xlink" id="Layer_1" x="0" y="0" version="1.1" viewBox="0 0 512 512" xml:space="preserve" style="enable-background:new 0 0 512 512"><style type="text/css">.st0{fill:#fff}</style><path d="M156.77,156.36c9.49-33.3,35.52-59.34,68.83-68.83C192.3,78.03,166.26,52,156.77,18.7	c-9.49,33.3-35.52,59.34-68.83,68.83C121.25,97.02,147.28,123.05,156.77,156.36z" class="st0"/><path d="M92.56,213.08c4.75-16.65,17.76-29.67,34.41-34.41c-16.65-4.75-29.67-17.76-34.41-34.41	c-4.75,16.65-17.76,29.67-34.41,34.41C74.8,183.41,87.81,196.42,92.56,213.08z" class="st0"/><path d="M55.29,140.75c3.67-12.88,13.74-22.94,26.61-26.61c-12.88-3.67-22.94-13.74-26.61-26.61	c-3.67,12.88-13.74,22.94-26.61,26.61C41.56,117.81,51.62,127.87,55.29,140.75z" class="st0"/></svg>