<svg xmlns="http://www.w3.org/2000/svg" xmlns:xlink="http://www.w3.org/1999/xlink" id="Layer_1" x="0" y="0" version="1.1" viewBox="0 0 512 512" xml:space="preserve" style="enable-background:new 0 0 512 512"><style type="text/css">.st0{fill:#fff}</style><path d="M90.25,49.13c-35.93-0.1-65.13,28.95-65.23,64.88c-0.1,35.93,28.95,65.13,64.88,65.23	c35.93,0.1,65.13-28.95,65.23-64.88c0-0.06,0-0.12,0-0.18C155.13,78.33,126.11,49.23,90.25,49.13z M90.25,143.79	c-16.35,0.1-29.68-13.08-29.78-29.42c-0.1-16.35,13.08-29.68,29.42-29.78c16.35-0.1,29.68,13.08,29.78,29.42c0,0.06,0,0.12,0,0.18	C119.67,130.47,106.53,143.69,90.25,143.79z" class="st0"/><path d="M200.5,131.91h267.84c9.79,0,17.73-7.94,17.73-17.73c0-9.79-7.94-17.73-17.73-17.73H200.5	c-9.79,0-17.73,7.94-17.73,17.73C182.78,123.97,190.71,131.91,200.5,131.91z" class="st0"/><path d="M90.25,190.94c-35.93-0.1-65.13,28.95-65.23,64.88c-0.1,35.93,28.95,65.13,64.88,65.23s65.13-28.95,65.23-64.88	c0-0.06,0-0.12,0-0.18C155.13,220.13,126.11,191.04,90.25,190.94z M90.25,285.59c-16.35,0.1-29.68-13.08-29.78-29.42	c-0.1-16.35,13.08-29.68,29.42-29.78c16.35-0.1,29.68,13.08,29.78,29.42c0,0.06,0,0.12,0,0.18	C119.67,272.27,106.53,285.5,90.25,285.59z" class="st0"/><path d="M468.34,238.27H200.5c-9.79,0-17.73,7.94-17.73,17.73c0,9.79,7.94,17.73,17.73,17.73h267.84	c9.79,0,17.73-7.94,17.73-17.73C486.07,246.2,478.13,238.27,468.34,238.27z" class="st0"/><path d="M90.25,332.75c-35.93-0.1-65.13,28.95-65.23,64.88c-0.1,35.93,28.95,65.13,64.88,65.23	c35.93,0.1,65.13-28.95,65.23-64.88c0-0.06,0-0.12,0-0.18C155.13,361.94,126.11,332.84,90.25,332.75z M90.25,427.4	c-16.35,0.1-29.68-13.08-29.78-29.42c-0.1-16.35,13.08-29.68,29.42-29.78s29.68,13.08,29.78,29.42c0,0.06,0,0.12,0,0.18	C119.67,414.08,106.53,427.3,90.25,427.4z" class="st0"/><path d="M468.34,380.07H200.5c-9.79,0-17.73,7.94-17.73,17.73c0,9.79,7.94,17.73,17.73,17.73h267.84	c9.79,0,17.73-7.94,17.73-17.73C486.07,388.01,478.13,380.07,468.34,380.07z" class="st0"/></svg>